<svg width="257" height="81" viewBox="0 0 257 81" fill="none" xmlns="http://www.w3.org/2000/svg">
    <path d="M65.1284 1.56081L54.4687 0.016432C54.1533 -0.0453432 53.8379 0.0781997 53.7118 0.20175L49.1704 6.00861C48.855 6.37927 48.7919 6.87347 48.9181 7.3059C49.0442 7.73832 48.6658 8.10898 48.2243 8.04721L44.5028 7.24412C43.9351 7.12057 43.3044 7.30591 42.9259 7.80011L28.1663 26.3327C27.914 26.7033 27.4094 26.8269 26.9679 26.6415L21.3542 24.1705C20.8496 23.9234 20.2819 23.9852 19.8404 24.2941L17.002 26.2091C16.5605 26.518 15.9297 26.5798 15.4251 26.3327L14.0375 25.6531C13.1544 25.2207 12.0821 25.7149 11.8298 26.6415L10.8206 31.0276C10.5683 32.0777 11.0098 33.1279 11.956 33.6839L14.1005 34.9812L20.9757 39.1201L24.3187 41.1587C25.2648 41.7147 26.4633 41.5911 27.2833 40.9116L32.897 36.0931C33.3385 35.7225 34.0323 35.5989 34.5369 35.9078L36.24 36.7727C36.8076 37.0815 37.5015 36.958 37.943 36.5256L40.7814 33.931C41.2229 33.4986 41.9167 33.4368 42.4213 33.6839L46.6474 35.5989C47.2781 35.9078 48.035 35.7225 48.4765 35.1665L50.4319 32.6955L65.2546 14.1012C65.9484 13.2363 65.5069 11.939 64.3715 11.6919L61.0916 10.9506C60.3978 10.8271 60.0824 9.96223 60.587 9.46803L65.6961 3.22873C66.2007 2.48743 65.8853 1.68436 65.1284 1.56081Z" fill="#8257E6"></path>
    <path d="M16.2443 38.9954C15.929 38.8101 15.6136 39.1189 15.7397 39.4278L17.3166 43.505C17.4428 43.8139 17.4428 44.1227 17.3797 44.4316L15.992 49.7443C15.929 50.1149 16.0551 50.4856 16.3074 50.6709L20.2812 53.6979C20.6596 53.945 21.1642 53.945 21.4796 53.6361L25.6425 50.0531C25.8948 49.8678 26.2102 49.7443 26.4625 49.6825L31.1932 49.1883C31.5085 49.1265 31.6347 48.6941 31.3193 48.5088L16.2443 38.9954Z" fill="#8257E6"></path>
    <path d="M14.8571 52.7093C14.6048 52.524 14.2263 52.4622 13.9109 52.5858L10.568 54.1919C10.3787 54.2537 10.2526 54.439 10.1264 54.6243L2.99892 71.8596C2.99892 71.9214 2.99892 71.9214 2.99892 71.9832C3.062 72.0449 3.12507 72.1067 3.25122 72.1067L4.89118 71.489C4.95426 71.489 5.01732 71.489 5.0804 71.489C5.14348 71.5507 5.20655 71.6743 5.14348 71.7361L0.0343808 79.9522C-0.0917697 80.1375 0.160537 80.3228 0.286688 80.1375L18.7677 61.9756C18.957 61.7903 19.02 61.6049 19.0831 61.3578L19.4616 56.6629C19.4616 56.354 19.3354 56.1069 19.1462 55.9216L14.8571 52.7093Z" fill="#8257E6"></path>
</svg>